<svg width="132" height="24" viewBox="0 0 132 24" fill="none" xmlns="http://www.w3.org/2000/svg">
<g id="Group 1707482964">
<g id="Group">
<path id="I" d="M130.861 3.59961H127.502C127.237 3.59961 127.021 3.81466 127.021 4.07967V22.3195C127.021 22.5846 127.237 22.7996 127.502 22.7996H130.861C131.126 22.7996 131.341 22.5846 131.341 22.3195V4.07967C131.341 3.81466 131.126 3.59961 130.861 3.59961Z" fill="white"/>
<path id="V" d="M122.701 4.07967V5.01101C122.701 5.15495 122.667 5.2701 122.601 5.38101L112.496 22.3322C112.321 22.6227 112.01 22.8005 111.671 22.8005H107.812C107.473 22.8005 107.159 22.6227 106.986 22.3322L96.882 5.38101C96.8168 5.2684 96.7812 5.1414 96.7812 5.01101V4.07967C96.7812 3.81466 96.9963 3.59961 97.2613 3.59961H100.226C100.6 3.59961 100.878 3.77741 101.051 4.06782L109.744 18.6501L118.432 4.06782C118.607 3.77741 118.895 3.59961 119.257 3.59961H122.221C122.486 3.59961 122.701 3.81466 122.701 4.07967Z" fill="white"/>
<path id="A" d="M83.5698 3.59961C83.2311 3.59961 82.9195 3.77741 82.7443 4.06782L72.6418 21.0191C72.5749 21.1291 72.541 21.2587 72.541 21.3891V22.3204C72.541 22.5854 72.7561 22.8005 73.0211 22.8005H75.9844C76.3231 22.8005 76.6347 22.6227 76.8099 22.3322L78.8284 18.9481H92.1745L94.193 22.3322C94.3657 22.6227 94.6798 22.8005 95.0185 22.8005H97.9818C98.2468 22.8005 98.4619 22.5854 98.4619 22.3204V21.3891C98.4619 21.2595 98.4255 21.1325 98.3611 21.0191L88.2586 4.06782C88.0859 3.77741 87.771 3.59961 87.4331 3.59961H83.5698ZM81.122 15.0957L85.4985 7.75169L89.8758 15.0957H81.122Z" fill="white"/>
<path id="N" d="M68.46 3.59961H65.119C64.854 3.59961 64.639 3.81466 64.639 4.07967V17.2226L51.2378 4.01533C51.187 3.96537 51.1328 3.91965 51.0753 3.87816C50.8306 3.69782 50.5334 3.59961 50.2252 3.59961H46.3796C46.1146 3.59961 45.9004 3.81466 45.9004 4.07967V22.3204C45.9004 22.5854 46.1146 22.7996 46.3796 22.7996H49.7206C49.9856 22.7996 50.2006 22.5854 50.2006 22.3204V9.17749L63.6026 22.3847C63.6534 22.4347 63.7076 22.4804 63.7643 22.5219C64.0099 22.7014 64.3071 22.7996 64.6152 22.7996H68.46C68.725 22.7996 68.9401 22.5854 68.9401 22.3204V4.07967C68.9401 3.81466 68.725 3.59961 68.46 3.59961Z" fill="white"/>
</g>
<g id="Group_2">
<path id="Vector" d="M36.1797 15.3797V23.2805C36.1797 23.6789 35.8581 24.0005 35.4597 24.0005H30.6837C30.3861 24.0005 30.0981 23.9093 29.8557 23.7389L14.0517 12.6101C13.4925 12.1877 12.1797 12.3077 12.1797 13.5965V23.2805C12.1797 23.6789 11.8581 24.0005 11.4597 24.0005H0.899688C0.501288 24.0005 0.179688 23.6789 0.179688 23.2805V12.7205C0.179688 12.3221 0.501288 12.0005 0.899688 12.0005H7.37969C8.88689 12.0005 9.77969 11.0309 9.77969 9.60047V1.20047C9.77969 0.802069 10.1013 0.480469 10.4997 0.480469H15.2661C15.6117 0.480469 15.8613 0.574069 16.1061 0.751669L35.7717 14.5949C36.0693 14.8037 36.1797 15.0389 36.1797 15.3797Z" fill="#0DC3A4"/>
<path id="Vector_2" d="M36.1797 0.72V11.0352C36.1797 11.4576 35.7717 11.6736 35.4237 11.4288L24.5925 3.8016C24.3333 3.6216 24.1797 3.42 24.1797 3.012V0.72C24.1797 0.3216 24.5013 0 24.8997 0H35.4597C35.8581 0 36.1797 0.3216 36.1797 0.72Z" fill="#0DC3A4"/>
</g>
</g>
</svg>
